<svg height="20" viewBox="-70 0 511 512" width="14" xmlns="http://www.w3.org/2000/svg"><g fill-rule="evenodd"><path d="m361.027344 136.199219c-5.519532 0-10 4.476562-10 10v329.601562c0 8.933594-7.265625 16.199219-16.195313 16.199219h-298.136719c-8.929687 0-16.195312-7.265625-16.195312-16.199219v-30c0-5.523437-4.476562-10-10-10s-10 4.476563-10 10v30c0 19.960938 16.238281 36.199219 36.195312 36.199219h298.136719c19.957031 0 36.195313-16.238281 36.195313-36.199219v-329.601562c0-5.523438-4.476563-10-10-10zm0 0"/><path d="m10.5 375.800781c5.523438 0 10-4.476562 10-10v-329.601562c0-8.933594 7.265625-16.199219 16.195312-16.199219h298.136719c8.933594 0 16.195313 7.265625 16.195313 16.199219v30c0 5.523437 4.480468 10 10 10 5.523437 0 10-4.476563 10-10v-30c0-19.960938-16.238282-36.199219-36.195313-36.199219h-298.136719c-19.957031 0-36.195312 16.238281-36.195312 36.199219v329.601562c0 5.523438 4.476562 10 10 10zm0 0"/><path d="m185.765625 58.945312c-69.652344 0-126.320313 56.664063-126.320313 126.320313 0 69.648437 56.667969 126.316406 126.320313 126.316406s126.320313-56.667969 126.320313-126.316406c0-69.65625-56.667969-126.320313-126.320313-126.320313zm0 232.636719c-58.625 0-106.320313-47.691406-106.320313-106.316406s47.695313-106.320313 106.320313-106.320313 106.320313 47.695313 106.320313 106.320313-47.695313 106.316406-106.320313 106.316406zm0 0"/><path d="m185.765625 132.824219c-28.914063 0-52.441406 23.523437-52.441406 52.441406 0 28.914063 23.527343 52.4375 52.441406 52.4375s52.4375-23.523437 52.4375-52.4375c0-28.917969-23.523437-52.441406-52.4375-52.441406zm0 84.878906c-17.886719 0-32.441406-14.550781-32.441406-32.4375 0-17.890625 14.554687-32.441406 32.441406-32.441406s32.4375 14.550781 32.4375 32.441406c0 17.886719-14.550781 32.4375-32.4375 32.4375zm0 0"/><path d="m69.445312 425.980469c-5.523437 0-10 4.480469-10 10 0 5.523437 4.476563 10 10 10h64.476563c5.523437 0 10-4.476563 10-10 0-5.519531-4.476563-10-10-10zm0 0"/><path d="m237.605469 425.980469c-5.519531 0-10 4.480469-10 10 0 5.523437 4.480469 10 10 10h64.480469c5.519531 0 10-4.476563 10-10 0-5.519531-4.480469-10-10-10zm0 0"/><path d="m10.5 415.800781c5.507812 0 10-4.492187 10-10 0-5.507812-4.492188-10-10-10s-10 4.492188-10 10c0 5.507813 4.492188 10 10 10zm0 0"/><path d="m361.027344 96.199219c-5.503906 0-10 4.492187-10 10 0 5.507812 4.496094 10 10 10 5.511718 0 10.003906-4.492188 10.003906-10 0-5.507813-4.492188-10-10.003906-10zm0 0"/></g></svg>