<?xml version="1.0" encoding="iso-8859-1"?>
<!-- Generator: Adobe Illustrator 19.0.0, SVG Export Plug-In . SVG Version: 6.00 Build 0)  -->
<svg version="1.1" id="Capa_1" xmlns="http://www.w3.org/2000/svg" xmlns:xlink="http://www.w3.org/1999/xlink" x="0px" y="0px"
	 viewBox="0 0 512.076 512.076" style="enable-background:new 0 0 512.076 512.076;" xml:space="preserve">
<g>
	<g>
		<g>
			<path d="M416.065,21.376h21.3v74.7c0,5.9,4.8,10.7,10.7,10.7s10.7-4.8,10.7-10.7v-74.7h21.3c5.9,0,10.7-4.8,10.7-10.7
				c0-5.9-4.8-10.6-10.7-10.6h-64c-5.9,0-10.7,4.8-10.7,10.7C405.365,16.676,410.165,21.376,416.065,21.376z"/>
			<path d="M341.365,106.776c5.9,0,10.7-4.8,10.7-10.7v-16.9l24.4,24.5c2.1,2.1,4.8,3.1,7.6,3.1c2.7,0,5.5-1,7.5-3.1
				c4.2-4.2,4.2-10.9,0-15.1l-24.7-24.7c15.7-2,27.9-15.5,27.9-31.7c0-17.6-14.4-32-32-32h-21.3c-5.9,0-10.7,4.8-10.7,10.7v85.2
				C330.765,101.976,335.465,106.776,341.365,106.776z M352.065,21.376h10.7c5.9,0,10.7,4.8,10.7,10.7c0,5.9-4.8,10.7-10.7,10.7
				h-10.7V21.376z"/>
			<path d="M230.965,106.076c5.5,2,11.7-0.7,13.7-6.2l5.4-14.4h33.2l5.4,14.4c1.6,4.3,5.7,6.9,10,6.9c1.3,0,2.5-0.2,3.8-0.7
				c5.5-2.1,8.3-8.2,6.2-13.7l-32-85.3c-3.1-8.3-16.9-8.3-20,0l-32,85.3C222.665,97.876,225.465,103.976,230.965,106.076z
				 M266.765,41.076l8.6,23h-17.2L266.765,41.076z"/>
			<path d="M128.065,106.776c5.9,0,10.7-4.8,10.7-10.7v-53.3l12.8,17.1c4.1,5.4,13.1,5.4,17.1,0l12.8-17.1v53.3
				c0,5.9,4.8,10.7,10.7,10.7c5.9,0,10.7-4.8,10.7-10.7v-85.3c0-4.6-2.9-8.7-7.3-10.1c-4.3-1.5-9.1,0-11.9,3.7l-23.6,31.2
				l-23.5-31.3c-2.8-3.7-7.6-5.2-11.9-3.7c-4.4,1.5-7.3,5.5-7.3,10.1v85.4C117.365,101.976,122.165,106.776,128.065,106.776z"/>
			<path d="M366.065,213.976c-5.5-1.9-11.6,1.2-13.5,6.7l-32.5,97.7l-32.5-97.6c-1.9-5.6-7.9-8.6-13.5-6.7
				c-5.6,1.9-8.6,7.9-6.7,13.5l42.7,128c1.5,4.4,5.5,7.3,10.1,7.3c4.6,0,8.7-2.9,10.1-7.3l42.7-128
				C374.665,221.876,371.665,215.776,366.065,213.976z"/>
			<path d="M469.365,128.076h-426.6c-17.6,0-32,14.4-32,32v256c0,17.6,14.4,32,32,32h181.3v23l-119.1,19.8c-5.8,1-9.7,6.5-8.8,12.3
				c0.9,5.2,5.4,8.9,10.5,8.9c0.6,0,1.2,0,1.8-0.1l127.1-21.2h41l127.1,21.2c0.6,0.1,1.2,0.1,1.8,0.1c5.1,0,9.6-3.7,10.5-8.9
				c1-5.8-3-11.3-8.8-12.3l-119.1-19.8v-23h181.3c17.6,0,32-14.4,32-32v-256C501.365,142.476,487.065,128.076,469.365,128.076z
				 M266.765,469.376h-21.3v-21.3h21.3V469.376z M480.165,416.076h-0.1c0,5.9-4.8,10.7-10.7,10.7h-426.6c-5.9,0-10.7-4.8-10.7-10.7
				v-256c0-5.9,4.8-10.7,10.7-10.7h426.7c5.9,0,10.7,4.8,10.7,10.7V416.076z"/>
			<path d="M53.365,85.476c-12.6,0-20.9-6-21.4-10.3c-0.6-5.9-5.8-10.2-11.6-9.6s-10.2,5.8-9.6,11.6c1.6,16.9,19.9,29.6,42.6,29.6
				c23.9,0,42.7-14.1,42.7-32c0-16.7-13.2-27.3-39.3-31.6l-3.2-0.5c-18.7-3.1-21.5-8-21.5-10.6c0-4.2,8.5-10.7,21.4-10.7
				c12.6,0,20.9,6,21.4,10.3c0.6,5.9,6,10.3,11.6,9.6c5.8-0.6,10.2-5.8,9.6-11.6c-1.7-16.9-20-29.6-42.6-29.6
				c-23.9,0-42.7,14.1-42.7,32c0,16.7,13.2,27.3,39.4,31.6l3.1,0.5c17.7,2.9,21.5,7.4,21.5,10.6
				C74.765,78.976,66.265,85.476,53.365,85.476z"/>
			<path d="M245.365,213.376h-106.6c-5.9,0-10.7,4.8-10.7,10.7s4.8,10.7,10.7,10.7h42.7v117.3c0,5.9,4.8,10.7,10.7,10.7
				c5.9,0,10.7-4.8,10.7-10.7v-117.3h42.7c5.9,0,10.7-4.8,10.7-10.7S251.265,213.376,245.365,213.376z"/>
		</g>
	</g>
</g>
<g>
</g>
<g>
</g>
<g>
</g>
<g>
</g>
<g>
</g>
<g>
</g>
<g>
</g>
<g>
</g>
<g>
</g>
<g>
</g>
<g>
</g>
<g>
</g>
<g>
</g>
<g>
</g>
<g>
</g>
</svg>
