<svg id="Capa_1" enable-background="new 0 0 512 512" height="512" viewBox="0 0 512 512" width="512" xmlns="http://www.w3.org/2000/svg"><g><g><path d="m108.03 266c4.227 0 8.082-2.776 9.453-6.763 1.348-3.919.059-8.432-3.188-11.022-3.199-2.553-7.716-2.909-11.267-.873-3.639 2.087-5.627 6.413-4.829 10.534.903 4.65 5.084 8.124 9.831 8.124z"/><path d="m245.868 359.843c57.259 0 103.843-46.584 103.843-103.843s-46.584-103.843-103.843-103.843-103.843 46.584-103.843 103.843 46.584 103.843 103.843 103.843zm0-187.686c46.231 0 83.843 37.611 83.843 83.843s-37.611 83.843-83.843 83.843c-46.231 0-83.843-37.611-83.843-83.843s37.612-83.843 83.843-83.843z"/><path d="m245.868 265.702h26.361c5.523 0 10-4.477 10-10 0-5.522-4.477-10-10-10h-16.361v-23.128c0-5.522-4.478-10-10-10s-10 4.478-10 10v33.128c0 5.523 4.478 10 10 10z"/><path d="m403.975 246h-10.599c-2.597-38.652-20.186-74.629-49.283-100.498v-44.982c0-17.596-14.315-31.91-31.91-31.91h-10.762v-58.61c0-5.523-4.478-10-10-10h-91.106c-5.523 0-10 4.477-10 10v58.609h-10.761c-17.596 0-31.91 14.314-31.91 31.91v44.983c-18.81 16.729-33.061 37.95-41.354 61.648-1.824 5.213.923 10.917 6.136 12.741 5.213 1.826 10.918-.923 12.741-6.136 7.62-21.773 21.064-41.134 38.881-55.989 2.278-1.9 3.596-4.714 3.596-7.681v-49.565c0-6.567 5.343-11.91 11.91-11.91h10.761v30.81c0 5.522 4.477 10 10 10h91.106c5.522 0 10-4.478 10-10v-30.81h10.762c6.567 0 11.91 5.343 11.91 11.91v49.566c0 2.967 1.317 5.78 3.596 7.68 29.248 24.39 46.022 60.194 46.022 98.234s-16.774 73.845-46.022 98.234c-2.278 1.899-3.596 4.713-3.596 7.68v49.566c0 6.567-5.343 11.91-11.91 11.91h-10.762v-30.81c0-5.522-4.478-10-10-10h-91.106c-5.523 0-10 4.478-10 10v30.81h-10.761c-6.567 0-11.91-5.343-11.91-11.91v-49.566c0-2.967-1.317-5.78-3.596-7.681-17.948-14.966-31.449-34.486-39.041-56.45-1.805-5.221-7.503-7.988-12.718-6.185-5.22 1.804-7.989 7.498-6.185 12.718 8.267 23.916 22.583 45.322 41.539 62.181v44.983c0 17.596 14.314 31.91 31.91 31.91h10.761v58.61c0 5.522 4.477 10 10 10h91.106c5.522 0 10-4.478 10-10v-58.609h10.762c17.596 0 31.91-14.314 31.91-31.91v-44.983c29.097-25.869 46.685-61.846 49.283-100.498h10.599c5.522 0 10-4.478 10-10 .001-5.523-4.477-10-9.999-10zm-122.554-136.581h-71.106v-89.419h71.106zm0 382.581h-71.106v-89.419h71.106z"/></g></g></svg>